<svg width="3840" height="208" viewBox="0 0 3840 208" fill="none" xmlns="http://www.w3.org/2000/svg">
<g clip-path="url(#clip0_707_1895)">
<path d="M-80.7842 828.994L-81.7686 827.977C-99.8971 809.239 -113.246 795.462 -133.753 774.268V95.9641C-110.859 72.3154 -96.9631 57.9432 -75.332 35.6155V35.6946L-69.3174 29.4817C-59.6066 19.4511 -49.9184 9.44441 -37.6318 -3.2468H-33.3916C-33.3787 -3.23142 -33.3655 -3.21626 -33.3525 -3.2009C-33.2634 -3.09498 -33.1744 -2.98957 -33.0859 -2.88449C-32.9975 -2.77934 -32.9091 -2.67435 -32.8213 -2.57004C-32.7335 -2.46575 -32.6457 -2.36197 -32.5586 -2.25851C-32.4716 -2.15509 -32.3852 -2.05154 -32.2988 -1.94894C-32.2125 -1.84636 -32.1267 -1.74407 -32.041 -1.6423C-31.9553 -1.54048 -31.8692 -1.43959 -31.7842 -1.33859C-31.6992 -1.23762 -31.6146 -1.13699 -31.5303 -1.03683C-31.446 -0.936669 -31.3619 -0.83638 -31.2783 -0.73703C-31.1948 -0.637798 -31.1121 -0.538576 -31.0293 -0.440155C-30.9464 -0.341669 -30.8634 -0.243888 -30.7812 -0.14621C-30.699 -0.0484804 -30.6167 0.048859 -30.5352 0.145782C-30.4536 0.2427 -30.3729 0.339707 -30.292 0.435822C-30.2111 0.531956 -30.13 0.627596 -30.0498 0.722931C-29.9696 0.818222 -29.8901 0.913592 -29.8105 1.00809C-29.731 1.10258 -29.6511 1.19661 -29.5723 1.29031C-29.4935 1.38396 -29.4151 1.47773 -29.3369 1.57059C-29.2588 1.66343 -29.181 1.75587 -29.1035 1.84793C-29.026 1.94005 -28.9489 2.03199 -28.8721 2.12332C-28.7952 2.21467 -28.7178 2.30521 -28.6416 2.39578C-28.5654 2.48639 -28.4897 2.57743 -28.4141 2.66727C-28.3386 2.75691 -28.2633 2.84597 -28.1885 2.93484C-28.1136 3.02388 -28.0391 3.11318 -27.9648 3.20145C-27.8905 3.28974 -27.8158 3.37759 -27.7422 3.46512C-27.6686 3.55256 -27.5954 3.64016 -27.5225 3.72684C-27.4495 3.81348 -27.377 3.89974 -27.3047 3.98563C-27.2323 4.07163 -27.1596 4.15722 -27.0879 4.24246C-27.0162 4.32763 -26.9451 4.41293 -26.874 4.49734C-26.803 4.58168 -26.7325 4.66571 -26.6621 4.7493C-26.5917 4.83301 -26.521 4.91633 -26.4512 4.9993C-26.3813 5.0823 -26.3114 5.16509 -26.2422 5.24734C-26.173 5.32954 -26.1047 5.41199 -26.0361 5.49344C-25.9676 5.57492 -25.899 5.65586 -25.8311 5.7366C-25.7631 5.81736 -25.6953 5.89779 -25.6279 5.97781C-25.5606 6.05783 -25.4935 6.13779 -25.4268 6.21707C-25.3601 6.29627 -25.2936 6.37493 -25.2275 6.4534C-25.1614 6.53199 -25.0958 6.61088 -25.0303 6.68875C-24.9648 6.76658 -24.8989 6.84407 -24.834 6.92117C-24.7692 6.9982 -24.7048 7.07533 -24.6406 7.15164C-24.5764 7.22799 -24.5119 7.30354 -24.4482 7.37918C-24.3845 7.4549 -24.3209 7.53073 -24.2578 7.60574C-24.1948 7.68066 -24.1318 7.75516 -24.0693 7.82938C-24.0069 7.90362 -23.9447 7.97752 -23.8828 8.05106C-23.821 8.12455 -23.7595 8.19798 -23.6982 8.27078C-23.6369 8.34367 -23.5754 8.41636 -23.5146 8.48856C-23.4539 8.56076 -23.3932 8.63286 -23.333 8.70438C-23.2729 8.77582 -23.2129 8.84748 -23.1533 8.91824C-23.0938 8.98893 -23.0345 9.05918 -22.9756 9.12918C-22.9166 9.19931 -22.8583 9.26969 -22.7998 9.33914C-22.7414 9.40855 -22.6828 9.47744 -22.625 9.54617C-22.5672 9.61492 -22.5094 9.68318 -22.4521 9.75125C-22.3949 9.81929 -22.3379 9.88701 -22.2812 9.95438C-22.2246 10.0216 -22.1684 10.0889 -22.1123 10.1555C-22.0562 10.2222 -21.9999 10.2888 -21.9443 10.3548C-21.8887 10.4209 -21.8334 10.4876 -21.7783 10.553C-21.7233 10.6184 -21.6677 10.6826 -21.6133 10.7473C-21.5589 10.812 -21.505 10.8767 -21.4512 10.9407C-21.3973 11.0047 -21.3434 11.0687 -21.29 11.1321C-21.2367 11.1955 -21.1836 11.2589 -21.1309 11.3216C-21.078 11.3843 -21.0249 11.4469 -20.9727 11.5091C-20.9204 11.5712 -20.8682 11.6331 -20.8164 11.6946C-20.7647 11.7561 -20.7133 11.8174 -20.6621 11.8782C-20.6109 11.9391 -20.5595 11.9996 -20.5088 12.0598C-20.4581 12.1201 -20.4086 12.1809 -20.3584 12.2405C-20.3082 12.3001 -20.2576 12.3593 -20.208 12.4182C-20.1585 12.4771 -20.1095 12.5358 -20.0605 12.594C-20.0114 12.6524 -19.9617 12.7101 -19.9131 12.7679C-19.8645 12.8256 -19.8166 12.8836 -19.7686 12.9407C-19.7206 12.9977 -19.6725 13.0542 -19.625 13.1106C-19.5775 13.1671 -19.5304 13.2237 -19.4834 13.2796C-19.4364 13.3355 -19.3893 13.3913 -19.3428 13.4466C-19.2963 13.5018 -19.25 13.557 -19.2041 13.6116C-19.1582 13.6662 -19.1118 13.7207 -19.0664 13.7747C-19.021 13.8286 -18.9756 13.8825 -18.9307 13.9358C-18.8858 13.9892 -18.8413 14.0423 -18.7969 14.095C-18.7524 14.1479 -18.7081 14.2009 -18.6641 14.2532C-18.6202 14.3053 -18.5765 14.357 -18.5332 14.4085C-18.4898 14.4601 -18.4462 14.5118 -18.4033 14.5628C-18.3603 14.6139 -18.3169 14.6656 -18.2744 14.7161C-18.232 14.7665 -18.1894 14.8167 -18.1475 14.8665C-18.1056 14.9163 -18.0639 14.9657 -18.0225 15.0149C-17.9809 15.0643 -17.9395 15.1136 -17.8984 15.1624C-17.8575 15.2111 -17.8169 15.2598 -17.7764 15.3079C-17.7358 15.3561 -17.6954 15.4048 -17.6553 15.4524C-17.6152 15.5001 -17.5748 15.547 -17.5352 15.594C-17.4955 15.6411 -17.4562 15.6881 -17.417 15.7346C-17.3779 15.7811 -17.3394 15.8275 -17.3008 15.8733C-17.2621 15.9193 -17.2228 15.9656 -17.1846 16.011C-17.1466 16.0562 -17.1088 16.1012 -17.0713 16.1458C-17.0335 16.1906 -16.9953 16.2353 -16.958 16.2796C-16.9207 16.3239 -16.8835 16.3686 -16.8467 16.4124C-16.81 16.456 -16.7735 16.4992 -16.7373 16.5423C-16.7009 16.5855 -16.6649 16.6294 -16.6289 16.6721C-16.593 16.7148 -16.557 16.757 -16.5215 16.7991C-16.486 16.8413 -16.451 16.8835 -16.416 16.9251C-16.381 16.9667 -16.3452 17.008 -16.3105 17.0491C-16.276 17.0902 -16.2421 17.1316 -16.208 17.1721C-16.1739 17.2127 -16.1392 17.2532 -16.1055 17.2932C-16.0719 17.3332 -16.0381 17.373 -16.0049 17.4124C-15.9716 17.4519 -15.9391 17.4916 -15.9062 17.5305C-15.8734 17.5696 -15.8401 17.6082 -15.8076 17.6468C-15.7752 17.6852 -15.7429 17.724 -15.7109 17.762C-15.679 17.7999 -15.6477 17.8379 -15.6162 17.8753C-15.5846 17.9128 -15.5526 17.9496 -15.5215 17.9866C-15.4904 18.0236 -15.4594 18.0605 -15.4287 18.097C-15.3979 18.1335 -15.3673 18.1703 -15.3369 18.2063C-15.3067 18.2423 -15.2769 18.2783 -15.2471 18.3138C-15.2171 18.3493 -15.1868 18.3851 -15.1572 18.4202C-15.1278 18.4552 -15.0984 18.4902 -15.0693 18.5247C-15.0403 18.5592 -15.0111 18.5932 -14.9824 18.6272C-14.9538 18.6612 -14.9257 18.6953 -14.8975 18.7288C-14.8691 18.7624 -14.8404 18.7962 -14.8125 18.8294C-14.7846 18.8625 -14.757 18.8954 -14.7295 18.928C-14.702 18.9607 -14.6746 18.9934 -14.6475 19.0257C-14.6204 19.0579 -14.5931 19.0896 -14.5664 19.1214C-14.5397 19.1531 -14.5136 19.1848 -14.4873 19.2161C-14.461 19.2474 -14.4351 19.279 -14.4092 19.3098C-14.3832 19.3407 -14.3567 19.3712 -14.3311 19.4016C-14.3055 19.432 -14.2801 19.4625 -14.2549 19.4925C-14.2297 19.5223 -14.2045 19.5519 -14.1797 19.5813C-14.1549 19.6107 -14.1308 19.6403 -14.1064 19.6692C-14.082 19.6983 -14.0573 19.7275 -14.0332 19.7561C-14.0091 19.7847 -13.9846 19.8129 -13.9609 19.8411C-13.9373 19.8692 -13.9139 19.8974 -13.8906 19.9251C-13.8673 19.9528 -13.8443 19.9808 -13.8213 20.0081C-13.7984 20.0353 -13.7755 20.0623 -13.7529 20.0891C-13.7303 20.116 -13.7078 20.1428 -13.6855 20.1692C-13.6633 20.1957 -13.6411 20.2223 -13.6191 20.2483C-13.5973 20.2743 -13.5752 20.2999 -13.5537 20.3255C-13.5321 20.3511 -13.5105 20.3774 -13.4893 20.4026C-13.4681 20.4277 -13.4466 20.4521 -13.4258 20.4768C-13.405 20.5016 -13.3847 20.5267 -13.3643 20.5511C-13.3437 20.5755 -13.323 20.6003 -13.3027 20.6243C-13.2826 20.6483 -13.262 20.672 -13.2422 20.6956C-13.2224 20.7191 -13.2031 20.7428 -13.1836 20.7659C-13.164 20.7891 -13.1442 20.8124 -13.125 20.8352L-13.0117 20.97C-12.9933 20.9919 -12.9752 21.0139 -12.957 21.0354C-12.9388 21.0571 -12.9203 21.0786 -12.9023 21.0999C-12.8844 21.1212 -12.8662 21.1424 -12.8486 21.1634C-12.8311 21.1842 -12.8141 21.2054 -12.7969 21.2259C-12.7796 21.2464 -12.7621 21.2663 -12.7451 21.2864C-12.7281 21.3066 -12.711 21.3271 -12.6943 21.347C-12.6778 21.3667 -12.6608 21.3862 -12.6445 21.4055C-12.6283 21.4248 -12.6126 21.4442 -12.5967 21.4632C-12.5807 21.4821 -12.5645 21.5012 -12.5488 21.5198C-12.5332 21.5384 -12.5173 21.5572 -12.502 21.5755C-12.4866 21.5937 -12.4711 21.6123 -12.4561 21.6302C-12.4409 21.6482 -12.425 21.6662 -12.4102 21.6839C-12.3953 21.7015 -12.3808 21.7193 -12.3662 21.7366C-12.3517 21.7539 -12.3375 21.7714 -12.3232 21.7884C-12.3089 21.8054 -12.2943 21.8225 -12.2803 21.8391C-12.2663 21.8558 -12.252 21.8726 -12.2383 21.8889C-12.2246 21.9052 -12.2107 21.9209 -12.1973 21.9368C-12.1838 21.9528 -12.1704 21.9689 -12.1572 21.9846C-12.144 22.0003 -12.1311 22.0162 -12.1182 22.0315C-12.1053 22.0468 -12.0927 22.0624 -12.0801 22.0774C-12.0675 22.0924 -12.0543 22.1067 -12.042 22.1214C-12.0297 22.136 -12.0179 22.151 -12.0059 22.1653C-11.9938 22.1797 -11.9816 22.1942 -11.9697 22.2083C-11.9579 22.2223 -11.9461 22.2365 -11.9346 22.2503C-11.9229 22.2641 -11.9108 22.2778 -11.8994 22.2913C-11.8881 22.3047 -11.8773 22.3182 -11.8662 22.3313C-11.8551 22.3445 -11.8438 22.3575 -11.833 22.3704C-11.8222 22.3832 -11.8113 22.396 -11.8008 22.4085C-11.7902 22.4211 -11.7799 22.4343 -11.7695 22.4466C-11.7592 22.4588 -11.7484 22.4707 -11.7383 22.4827C-11.7281 22.4948 -11.7179 22.5071 -11.708 22.5188C-11.6981 22.5306 -11.6884 22.5425 -11.6787 22.554C-11.6691 22.5654 -11.6598 22.577 -11.6504 22.5882C-11.641 22.5993 -11.6313 22.6105 -11.6221 22.6214C-11.6129 22.6322 -11.6036 22.643 -11.5947 22.6536L-11.542 22.7161C-11.5335 22.7262 -11.5249 22.7365 -11.5166 22.7464C-11.5084 22.7561 -11.5002 22.7661 -11.4922 22.7757C-11.4841 22.7852 -11.4756 22.7947 -11.4678 22.804C-11.4601 22.8131 -11.4528 22.8224 -11.4453 22.8313C-11.4376 22.8405 -11.4294 22.8498 -11.4219 22.8587C-11.4145 22.8675 -11.4076 22.8765 -11.4004 22.885C-11.3931 22.8937 -11.385 22.902 -11.3779 22.9104C-11.3709 22.9188 -11.3643 22.9277 -11.3574 22.9358C-11.3506 22.9439 -11.3435 22.9514 -11.3369 22.9593L-11.2979 23.0061C-11.2916 23.0136 -11.2854 23.0214 -11.2793 23.0286C-11.2733 23.0357 -11.2676 23.0431 -11.2617 23.0501L-11.2266 23.0911C-11.2211 23.0976 -11.2152 23.1044 -11.21 23.1106L-11.1787 23.1477C-11.1738 23.1536 -11.1689 23.1596 -11.1641 23.1653C-11.1592 23.1711 -11.1541 23.1764 -11.1494 23.1819L-11.1221 23.2151C-11.1178 23.2203 -11.1135 23.2258 -11.1094 23.2307C-11.1052 23.2357 -11.1007 23.2406 -11.0967 23.2454C-11.0927 23.2501 -11.0888 23.2546 -11.085 23.2591C-11.081 23.2638 -11.077 23.2692 -11.0732 23.2737C-11.0695 23.2781 -11.0651 23.2821 -11.0615 23.2864C-11.0579 23.2907 -11.0543 23.295 -11.0508 23.2991C-11.0473 23.3032 -11.0444 23.3078 -11.041 23.3118C-11.0377 23.3158 -11.0345 23.3197 -11.0312 23.3235C-11.0281 23.3273 -11.0245 23.3306 -11.0215 23.3343C-11.0184 23.3379 -11.0157 23.3424 -11.0127 23.346L-10.9951 23.3655C-10.9924 23.3687 -10.9899 23.3722 -10.9873 23.3753C-10.9847 23.3783 -10.982 23.3811 -10.9795 23.3841C-10.9771 23.387 -10.975 23.3901 -10.9727 23.3929L-10.959 23.4085C-10.9569 23.4109 -10.9551 23.414 -10.9531 23.4163L-10.9355 23.4368C-10.9339 23.4387 -10.9322 23.4409 -10.9307 23.4427C-10.9291 23.4445 -10.9272 23.4458 -10.9258 23.4475C-10.9243 23.4494 -10.9233 23.4517 -10.9219 23.4534L-10.9141 23.4632L-10.9062 23.471L-10.9004 23.4788C-10.8995 23.4799 -10.8983 23.4807 -10.8975 23.4817C-10.8967 23.4826 -10.8962 23.4838 -10.8955 23.4846C-10.8947 23.4856 -10.8933 23.4867 -10.8926 23.4876C-10.8919 23.4884 -10.8913 23.4897 -10.8906 23.4905L-10.8867 23.4944L-10.8857 23.4964L-10.8828 23.4993L-10.8818 23.5013L-10.8779 23.5052V23.5061H-10.877L-10.876 23.5071V23.5081H-10.875V23.5091L-10.873 23.511V23.512L-10.8672 23.5179L-10.8662 23.5198L-10.8604 23.5257C-10.8597 23.5264 -10.8591 23.5278 -10.8584 23.5286L-10.8564 23.5305C-10.8556 23.5315 -10.8544 23.5334 -10.8535 23.5345C-10.8527 23.5354 -10.8514 23.5364 -10.8506 23.5374C-10.8497 23.5384 -10.8486 23.5402 -10.8477 23.5413C-10.8468 23.5423 -10.8456 23.5431 -10.8447 23.5442C-10.8436 23.5455 -10.843 23.5477 -10.8418 23.5491C-10.8407 23.5505 -10.8391 23.5516 -10.8379 23.553L-10.8301 23.5628C-10.8287 23.5644 -10.8267 23.5659 -10.8252 23.5677L-10.8154 23.5794C-10.8137 23.5814 -10.8124 23.584 -10.8105 23.5862C-10.8088 23.5883 -10.8065 23.5899 -10.8047 23.5921C-10.8028 23.5944 -10.8009 23.5975 -10.7988 23.5999C-10.7968 23.6023 -10.7941 23.6042 -10.792 23.6067C-10.7899 23.6091 -10.7883 23.612 -10.7861 23.6145C-10.7839 23.6172 -10.7817 23.6205 -10.7793 23.6233C-10.777 23.6261 -10.7739 23.6283 -10.7715 23.6311C-10.769 23.6341 -10.7663 23.6378 -10.7637 23.6409C-10.7612 23.6438 -10.7584 23.6466 -10.7559 23.6497C-10.7531 23.6529 -10.7509 23.6571 -10.748 23.6604C-10.7453 23.6637 -10.7421 23.6668 -10.7393 23.6702C-10.7363 23.6737 -10.7326 23.6773 -10.7295 23.6809C-10.7264 23.6846 -10.7239 23.6888 -10.7207 23.6927C-10.7175 23.6964 -10.7143 23.7004 -10.7109 23.7044L-10.6895 23.7298C-10.6859 23.734 -10.6815 23.738 -10.6777 23.7425C-10.6741 23.7468 -10.6708 23.7516 -10.667 23.7561L-10.6416 23.7854C-10.6374 23.7905 -10.6333 23.7959 -10.6289 23.8011C-10.6245 23.8063 -10.6198 23.8113 -10.6152 23.8167C-10.6107 23.8221 -10.6062 23.8277 -10.6016 23.8333L-10.5723 23.8684L-10.541 23.9055C-10.5356 23.9119 -10.53 23.9185 -10.5244 23.9251C-10.5189 23.9317 -10.5135 23.9388 -10.5078 23.9456C-10.5021 23.9523 -10.4961 23.9591 -10.4902 23.9661C-10.4843 23.9731 -10.4778 23.9803 -10.4717 23.9876C-10.4656 23.9948 -10.4594 24.0025 -10.4531 24.01C-10.4469 24.0175 -10.44 24.0248 -10.4336 24.0325C-10.4271 24.0402 -10.4207 24.048 -10.4141 24.0559C-10.4074 24.0639 -10.4004 24.0722 -10.3936 24.0804C-10.3867 24.0885 -10.3801 24.0974 -10.373 24.1057C-10.366 24.1141 -10.3588 24.1226 -10.3516 24.1311L-10.3066 24.1839C-10.2989 24.193 -10.2911 24.2028 -10.2832 24.2122C-10.2753 24.2216 -10.2669 24.2309 -10.2588 24.2405C-10.2507 24.2501 -10.2427 24.26 -10.2344 24.2698C-10.226 24.2797 -10.2175 24.2899 -10.209 24.3001C-10.2005 24.3102 -10.1923 24.321 -10.1836 24.3313C-10.1749 24.3417 -10.1652 24.3519 -10.1562 24.3626C-10.1473 24.3732 -10.1381 24.3839 -10.1289 24.3948C-10.1198 24.4056 -10.1109 24.4169 -10.1016 24.428C-10.0921 24.4392 -10.0819 24.4507 -10.0723 24.4622C-10.0626 24.4736 -10.0528 24.4856 -10.043 24.4973C-10.0331 24.509 -10.0228 24.5205 -10.0127 24.5325C-10.0025 24.5446 -9.99281 24.5573 -9.98242 24.5696C-9.97213 24.5818 -9.9617 24.5942 -9.95117 24.6067C-9.94054 24.6194 -9.92982 24.6329 -9.91895 24.6458C-9.90809 24.6587 -9.89685 24.6716 -9.88574 24.6848C-9.87464 24.698 -9.86292 24.7114 -9.85156 24.7249C-9.84025 24.7383 -9.82894 24.7522 -9.81738 24.7659C-9.80578 24.7797 -9.79409 24.7938 -9.78223 24.8079C-9.77036 24.822 -9.75822 24.8365 -9.74609 24.8509C-9.73404 24.8652 -9.7213 24.8792 -9.70898 24.8938C-9.69665 24.9085 -9.68447 24.9238 -9.67188 24.9388C-9.6592 24.9538 -9.64576 24.9693 -9.63281 24.9846C-9.61991 25 -9.60692 25.0159 -9.59375 25.0315C-9.58065 25.0471 -9.56708 25.0625 -9.55371 25.0784C-9.54022 25.0944 -9.52646 25.1109 -9.5127 25.1272C-9.49893 25.1436 -9.48475 25.1603 -9.4707 25.177C-9.45673 25.1936 -9.44296 25.2109 -9.42871 25.2278L-9.34082 25.3313C-9.32598 25.349 -9.31102 25.3671 -9.2959 25.385C-9.28078 25.403 -9.2654 25.4214 -9.25 25.4397C-9.23461 25.458 -9.21881 25.4768 -9.20312 25.4954C-9.18734 25.5141 -9.17135 25.5339 -9.15527 25.553C-9.13924 25.5721 -9.12278 25.5912 -9.10645 25.6106C-9.09009 25.6301 -9.0733 25.6494 -9.05664 25.6692L-8.95508 25.7903C-8.93777 25.8109 -8.91996 25.8319 -8.90234 25.8528C-8.88479 25.8737 -8.86748 25.8951 -8.84961 25.9163C-8.83168 25.9376 -8.81317 25.9591 -8.79492 25.9807C-8.77667 26.0024 -8.75783 26.0241 -8.73926 26.0462C-8.72071 26.0682 -8.70247 26.0911 -8.68359 26.1136C-8.66474 26.136 -8.64515 26.1581 -8.62598 26.1809C-8.60679 26.2037 -8.58787 26.2271 -8.56836 26.2503C-8.5488 26.2735 -8.52868 26.297 -8.50879 26.3206C-8.48893 26.3442 -8.46844 26.3679 -8.44824 26.3919C-8.42806 26.4159 -8.40821 26.4407 -8.3877 26.4651C-8.3672 26.4895 -8.34603 26.5136 -8.3252 26.5384C-8.30429 26.5632 -8.28297 26.5883 -8.26172 26.6136C-8.24061 26.6386 -8.21969 26.6642 -8.19824 26.6897C-8.17667 26.7154 -8.15474 26.7418 -8.13281 26.7679C-8.11087 26.7939 -8.0887 26.8205 -8.06641 26.847C-8.04413 26.8734 -8.02165 26.9001 -7.99902 26.927C-7.97644 26.9539 -7.9536 26.9808 -7.93066 27.0081C-7.90765 27.0354 -7.88372 27.0633 -7.86035 27.0911C-7.83707 27.1188 -7.81368 27.147 -7.79004 27.1751C-7.76635 27.2032 -7.74183 27.2315 -7.71777 27.26C-7.69373 27.2886 -7.66992 27.318 -7.64551 27.347C-7.62107 27.376 -7.5961 27.4054 -7.57129 27.4348C-7.54651 27.4643 -7.52124 27.4938 -7.49609 27.5237C-7.47089 27.5537 -7.4455 27.5841 -7.41992 27.6145C-7.39438 27.6449 -7.3687 27.6755 -7.34277 27.7063C-7.31693 27.737 -7.29087 27.7679 -7.26465 27.7991C-7.23835 27.8303 -7.21125 27.8621 -7.18457 27.8938C-7.15782 27.9256 -7.13065 27.9583 -7.10352 27.9905C-7.07644 28.0227 -7.04894 28.0555 -7.02148 28.0882C-6.99406 28.1208 -6.96629 28.1537 -6.93848 28.1868C-6.91071 28.2198 -6.88265 28.2529 -6.85449 28.2864C-6.82617 28.3201 -6.79728 28.3548 -6.76855 28.3889C-6.73992 28.423 -6.71068 28.457 -6.68164 28.4915C-6.65254 28.5261 -6.62326 28.5609 -6.59375 28.596C-6.56422 28.6311 -6.53482 28.6668 -6.50488 28.7024C-6.47496 28.738 -6.44439 28.7738 -6.41406 28.8098C-6.38378 28.8458 -6.35296 28.8818 -6.32227 28.9182C-6.29154 28.9548 -6.26064 28.9916 -6.22949 29.0286C-6.19834 29.0656 -6.16731 29.1034 -6.13574 29.1409C-6.10415 29.1784 -6.07205 29.2161 -6.04004 29.2542C-6.00801 29.2922 -5.97581 29.3309 -5.94336 29.3694C-5.91099 29.4079 -5.8785 29.4467 -5.8457 29.4856C-5.81282 29.5247 -5.7794 29.5642 -5.74609 29.6038C-5.71284 29.6433 -5.67919 29.6829 -5.64551 29.7229C-5.61184 29.7629 -5.57805 29.8035 -5.54395 29.844C-5.50977 29.8846 -5.47505 29.9259 -5.44043 29.9671C-5.40584 30.0082 -5.37097 30.0495 -5.33594 30.0911C-5.3009 30.1327 -5.26595 30.1749 -5.23047 30.2171C-5.19502 30.2592 -5.15894 30.3014 -5.12305 30.344C-5.08718 30.3866 -5.05096 30.4298 -5.01465 30.4729C-4.97824 30.5162 -4.94116 30.56 -4.9043 30.6038C-4.86749 30.6475 -4.83023 30.6913 -4.79297 30.7356C-4.75575 30.7799 -4.71834 30.8246 -4.68066 30.8694C-4.64291 30.9143 -4.60462 30.9597 -4.56641 31.0052C-4.52817 31.0506 -4.48987 31.0969 -4.45117 31.1429C-4.41251 31.1888 -4.37311 31.235 -4.33398 31.2815C-4.29489 31.328 -4.25539 31.3751 -4.21582 31.4221C-4.17634 31.4691 -4.13663 31.5163 -4.09668 31.5638C-4.05668 31.6113 -4.01606 31.6592 -3.97559 31.7073C-3.935 31.7555 -3.89361 31.805 -3.85254 31.8538C-3.81159 31.9025 -3.76995 31.951 -3.72852 32.0003C-3.68697 32.0496 -3.64555 32.0997 -3.60352 32.1497C-3.56152 32.1996 -3.51905 32.2496 -3.47656 32.3001C-3.43413 32.3505 -3.39155 32.4014 -3.34863 32.4524C-3.30568 32.5035 -3.26219 32.5551 -3.21875 32.6067C-3.17524 32.6584 -3.13092 32.7107 -3.08691 32.763C-3.04297 32.8152 -2.99854 32.8684 -2.9541 32.9212C-2.90974 32.9739 -2.86517 33.027 -2.82031 33.0804C-2.77534 33.1338 -2.73004 33.1875 -2.68457 33.2415C-2.63906 33.2956 -2.59289 33.3499 -2.54688 33.4046C-2.5009 33.4592 -2.45469 33.5144 -2.4082 33.5696C-2.36174 33.6248 -2.31553 33.6808 -2.26855 33.7366C-2.22155 33.7925 -2.1735 33.8481 -2.12598 33.9046C-2.07843 33.9611 -2.03049 34.0183 -1.98242 34.0755C-1.93448 34.1324 -1.88635 34.1898 -1.83789 34.2473C-1.7893 34.3051 -1.74052 34.3638 -1.69141 34.4221C-1.64232 34.4805 -1.59258 34.539 -1.54297 34.5979C-1.4934 34.6568 -1.44365 34.7161 -1.39355 34.7757C-1.34344 34.8352 -1.29283 34.8952 -1.24219 34.9554C-1.19149 35.0156 -1.1401 35.0761 -1.08887 35.137C-1.03767 35.1978 -0.986302 35.2591 -0.93457 35.3206C-0.882822 35.3821 -0.830609 35.444 -0.77832 35.5061C-0.7261 35.5682 -0.673855 35.6309 -0.621094 35.6936C-0.568233 35.7564 -0.514344 35.8196 -0.460938 35.8831C-0.407646 35.9464 -0.354619 36.0105 -0.300781 36.0745C-0.24687 36.1386 -0.192157 36.2031 -0.137695 36.2679C-0.0832712 36.3325 -0.02861 36.3978 0.0263672 36.4632C0.0813415 36.5285 0.136853 36.5944 0.192383 36.6604C0.247941 36.7265 0.304234 36.793 0.360352 36.8596C0.416526 36.9264 0.473536 36.9934 0.530273 37.0608C0.587017 37.1283 0.643862 37.1968 0.701172 37.2649C0.758382 37.3329 0.816246 37.4013 0.874023 37.47C0.931759 37.5386 0.989547 37.6077 1.04785 37.677C1.1063 37.7465 1.16558 37.8169 1.22461 37.887C1.28352 37.957 1.34285 38.0272 1.40234 38.0979C1.46195 38.1688 1.52185 38.2403 1.58203 38.3118C1.64217 38.3833 1.70295 38.4555 1.76367 38.5276C1.82422 38.5996 1.88516 38.6718 1.94629 38.7444C2.00761 38.8173 2.06992 38.8906 2.13184 38.9641C2.19378 39.0377 2.25583 39.1125 2.31836 39.1868C2.38081 39.261 2.44379 39.3355 2.50684 39.4104C2.56994 39.4854 2.63357 39.5613 2.69727 39.637C2.76078 39.7125 2.82456 39.7883 2.88867 39.8645C2.95299 39.941 3.01809 40.0179 3.08301 40.095C3.14786 40.1721 3.21286 40.2496 3.27832 40.3274C3.34385 40.4053 3.41043 40.4842 3.47656 40.5628C3.54256 40.6412 3.60917 40.72 3.67578 40.7991C3.74249 40.8784 3.80963 40.9584 3.87695 41.0384C3.94424 41.1183 4.01217 41.1989 4.08008 41.2796C4.14791 41.3602 4.21573 41.4414 4.28418 41.5227C4.35278 41.6043 4.42199 41.6866 4.49121 41.7688C4.56039 41.851 4.6304 41.9339 4.7002 42.0169C4.76991 42.0997 4.83981 42.1833 4.91016 42.2669C4.98059 42.3506 5.05198 42.4344 5.12305 42.5188C5.19411 42.6033 5.26522 42.6885 5.33691 42.7737C5.4086 42.8589 5.48041 42.9446 5.55273 43.0305C5.62511 43.1166 5.69847 43.2026 5.77148 43.2893C5.84448 43.3761 5.91757 43.4636 5.99121 43.5511C6.06482 43.6385 6.13863 43.7265 6.21289 43.8147C6.28708 43.9029 6.36169 43.9914 6.43652 44.0804C6.51147 44.1694 6.58749 44.2591 6.66309 44.3489C6.73863 44.4387 6.81443 44.5289 6.89062 44.6194C6.96687 44.71 7.04321 44.8015 7.12012 44.8929C7.197 44.9842 7.27403 45.0761 7.35156 45.1682C7.42913 45.2604 7.50771 45.3526 7.58594 45.4456C7.66414 45.5385 7.74242 45.6321 7.82129 45.7259C7.9001 45.8195 7.97912 45.9136 8.05859 46.0081C8.13815 46.1026 8.2186 46.1979 8.29883 46.2932C8.37897 46.3885 8.45922 46.4843 8.54004 46.5804C8.62089 46.6764 8.70265 46.7725 8.78418 46.8694C8.86575 46.9663 8.94802 47.0637 9.03027 47.1614C9.1125 47.2591 9.19443 47.3578 9.27734 47.4563C9.36028 47.5549 9.44373 47.6538 9.52734 47.7532C9.61089 47.8525 9.69507 47.9519 9.7793 48.052C9.86352 48.1521 9.94829 48.2529 10.0332 48.3538C10.1182 48.4548 10.2034 48.5567 10.2891 48.6585C10.3748 48.7603 10.4615 48.8625 10.5479 48.9651C10.6342 49.0677 10.7206 49.1713 10.8076 49.2747C10.8946 49.3781 10.9826 49.482 11.0703 49.5862C11.158 49.6904 11.2456 49.7956 11.334 49.9007C11.4224 50.0058 11.5114 50.1111 11.6006 50.2171C11.6898 50.3231 11.7792 50.4296 11.8691 50.5364C11.959 50.6432 12.05 50.75 12.1406 50.8577C12.2312 50.9653 12.3218 51.0735 12.4131 51.1819C12.5044 51.2904 12.5964 51.3997 12.6885 51.5091L13.7373 52.7552H1315.93L1443.1 184.126L1444.13 185.192H2389.45L2390.48 184.124C2405.96 168.111 2419.4 154.251 2432.11 141.123L2432.11 141.124L2517.69 52.7552H3827.82L3828.85 51.6907C3838.56 41.6672 3844.89 33.064 3851.4 24.3157C3857.38 16.2904 3863.54 8.09515 3872.74 -1.69504C3884.32 10.2673 3893.61 19.8634 3902.92 29.4817L3908.94 35.6946V35.6184C3930.57 57.9628 3944.47 72.3176 3967.36 95.9641V774.268C3946.83 795.479 3933.5 809.24 3915.36 827.977L3914.38 828.994V1751.94L3915.36 1752.96C3933.54 1771.72 3946.84 1785.46 3967.38 1806.69V2484.99C3955.08 2497.71 3945.37 2507.73 3935.66 2517.76C3927.31 2526.38 3918.96 2535.01 3908.96 2545.34V2545.26L3902.95 2551.47C3893.23 2561.51 3883.55 2571.51 3871.26 2584.2H3214.75C3193.78 2562.55 3180.31 2548.63 3161.55 2529.27L3160.52 2528.2H2517.66L2390.5 2396.83L2389.47 2395.76H1444.16L1443.13 2396.83L1413.03 2427.92C1402.32 2438.98 1392.34 2449.29 1382.38 2459.59C1369.65 2472.7 1357.01 2485.78 1342.85 2500.4L1342.85 2500.4L1315.93 2528.2H673.097L672.065 2529.27C653.319 2548.63 639.836 2562.55 618.881 2584.2H-37.6318C-49.9127 2571.52 -59.6132 2561.5 -69.3174 2551.47L-75.332 2545.26V2545.34C-96.9636 2522.99 -110.861 2508.64 -133.753 2484.99V1806.69C-113.246 1785.49 -99.8972 1771.72 -81.7686 1752.98L-80.7842 1751.96V828.994ZM3898.61 499.047L3897.62 498.03C3879.06 478.865 3865.87 465.242 3845.25 443.947V69.2903H2524.16L2523.12 70.3557L2443.21 152.908C2429.61 166.952 2415.15 181.834 2398.25 199.338L2395.94 201.727H1437.69L1310.35 70.7639L1309.31 69.6956L1307.82 69.7034L-8.16211 76.7962L-11.6436 76.8147V443.946C-21.8001 454.436 -30.1491 463.058 -38.2217 471.394C-46.5537 479.997 -54.5907 488.296 -64.0146 498.031L-65 499.048V2081.95L-64.0156 2082.96C-45.4615 2102.14 -32.2819 2115.74 -11.6436 2137.06V2457.89H298.982C319.106 2478.68 332.171 2492.17 350.061 2510.65L351.092 2511.72H1309.49L1310.52 2510.65L1331.78 2488.67L1331.78 2488.67C1345.95 2474.04 1358.61 2460.94 1371.31 2447.86L1371.31 2447.85C1381.25 2437.58 1391.25 2427.25 1401.96 2416.19L1401.96 2416.19L1437.67 2379.26H2395.92L2523.08 2510.63L2524.11 2511.69H3482.5L3483.54 2510.63C3501.42 2492.15 3514.49 2478.65 3534.61 2457.87H3845.25V2137.03C3865.89 2115.72 3879.06 2102.12 3897.62 2082.94L3898.61 2081.92V499.047Z" stroke="#84DFFF" stroke-width="7"/>
</g>
<defs>
<clipPath id="clip0_707_1895">
<rect width="3840" height="2160" rx="20" fill="white"/>
</clipPath>
</defs>
</svg>
