<svg width="110" height="102" viewBox="0 0 110 102" fill="none" xmlns="http://www.w3.org/2000/svg">
<rect x="0.520752" y="0.728577" width="108" height="100.036" rx="8.5" fill="#303E4A"/>
<rect x="0.520752" y="0.728577" width="108" height="100.036" rx="8.5" fill="#2F3D4A"/>
<rect x="0.520752" y="0.728577" width="108" height="100.036" rx="8.5" stroke="#1E2932"/>
<path d="M24.5942 73.8174L20.8364 62.5439H23.4849L25.977 71.1924H26.1177L28.602 62.5439H31.2583L27.5005 73.8174H24.5942ZM35.8052 73.9971C34.9354 73.9971 34.1854 73.8174 33.5552 73.458C32.9302 73.0934 32.4484 72.5778 32.1099 71.9111C31.7713 71.2445 31.602 70.4502 31.602 69.5283V69.5205C31.602 68.609 31.7687 67.8174 32.102 67.1455C32.4406 66.4736 32.9172 65.9528 33.5317 65.583C34.1515 65.2132 34.8781 65.0283 35.7114 65.0283C36.55 65.0283 37.2739 65.208 37.8833 65.5674C38.4927 65.9268 38.9614 66.4294 39.2895 67.0752C39.6177 67.721 39.7817 68.4788 39.7817 69.3486V70.0596H32.7427V68.6299H38.688L37.6177 69.9814V69.0674C37.6177 68.5518 37.5369 68.1221 37.3755 67.7783C37.2192 67.4346 37.0005 67.1768 36.7192 67.0049C36.4432 66.8278 36.1203 66.7393 35.7505 66.7393C35.3859 66.7393 35.0604 66.8304 34.7739 67.0127C34.4927 67.1898 34.2687 67.4528 34.102 67.8018C33.9406 68.1455 33.8599 68.5674 33.8599 69.0674V69.9893C33.8599 70.4736 33.9406 70.8877 34.102 71.2314C34.2635 71.5752 34.4927 71.8382 34.7895 72.0205C35.0864 72.2028 35.4406 72.2939 35.852 72.2939C36.1854 72.2939 36.4692 72.2445 36.7036 72.1455C36.938 72.0465 37.1255 71.932 37.2661 71.8018C37.4119 71.6663 37.5109 71.5439 37.563 71.4346L37.5864 71.3877H39.7114L39.6958 71.4658C39.6281 71.7367 39.5057 72.0205 39.3286 72.3174C39.1515 72.609 38.9067 72.8825 38.5942 73.1377C38.2869 73.3929 37.9015 73.6012 37.438 73.7627C36.9797 73.9189 36.4354 73.9971 35.8052 73.9971ZM32.5161 64.3096L34.477 61.8799H36.4458L38.4224 64.3096H36.6958L35.2895 62.5596H35.6099L34.2427 64.3096H32.5161ZM37.3677 61.2627L35.5864 58.833H37.4927L38.7427 61.2627H37.3677ZM48.7349 73.8174V64.4893H45.352V62.5439H54.477V64.4893H51.0942V73.8174H48.7349ZM55.4458 73.8174V65.2158H57.727V66.5518H57.8677C58.0083 66.083 58.2661 65.721 58.6411 65.4658C59.0161 65.2054 59.4823 65.0752 60.0395 65.0752C60.1958 65.0752 60.3468 65.0856 60.4927 65.1064C60.6437 65.1273 60.7765 65.1533 60.8911 65.1846V67.1768C60.7192 67.1351 60.5448 67.1038 60.3677 67.083C60.1958 67.057 60.0213 67.0439 59.8442 67.0439C59.4119 67.0439 59.0369 67.1247 58.7192 67.2861C58.4015 67.4424 58.1567 67.6663 57.9849 67.958C57.813 68.2497 57.727 68.5986 57.727 69.0049V73.8174H55.4458ZM64.602 73.9502C64.0604 73.9502 63.576 73.846 63.1489 73.6377C62.727 73.4242 62.3963 73.1247 62.1567 72.7393C61.9172 72.3486 61.7974 71.8929 61.7974 71.3721V71.3564C61.7974 70.8408 61.925 70.3981 62.1802 70.0283C62.4406 69.6585 62.8182 69.3695 63.313 69.1611C63.813 68.9476 64.4198 68.82 65.1333 68.7783L68.3364 68.583V69.9736L65.477 70.1611C64.9875 70.1872 64.6229 70.2913 64.3833 70.4736C64.1437 70.6559 64.0239 70.9033 64.0239 71.2158V71.2314C64.0239 71.5596 64.1489 71.8174 64.3989 72.0049C64.6489 72.1924 64.9718 72.2861 65.3677 72.2861C65.7218 72.2861 66.0369 72.2158 66.313 72.0752C66.589 71.9346 66.8078 71.7445 66.9692 71.5049C67.1307 71.2601 67.2114 70.9867 67.2114 70.6846V67.9424C67.2114 67.5674 67.0864 67.2809 66.8364 67.083C66.5916 66.8799 66.2349 66.7783 65.7661 66.7783C65.3547 66.7783 65.0187 66.8486 64.7583 66.9893C64.5031 67.1247 64.3312 67.32 64.2427 67.5752L64.227 67.6064H62.1177L62.1255 67.5361C62.188 67.0309 62.3781 66.5908 62.6958 66.2158C63.0187 65.8408 63.451 65.5492 63.9927 65.3408C64.5395 65.1325 65.1724 65.0283 65.8911 65.0283C66.6515 65.0283 67.2974 65.1455 67.8286 65.3799C68.3599 65.609 68.7635 65.9424 69.0395 66.3799C69.3208 66.8122 69.4614 67.333 69.4614 67.9424V73.8174H67.2114V72.6768H67.0708C66.925 72.9424 66.7297 73.1715 66.4849 73.3643C66.2453 73.5518 65.964 73.6976 65.6411 73.8018C65.3234 73.9007 64.977 73.9502 64.602 73.9502ZM65.7895 77.4971C65.451 77.4971 65.1593 77.3773 64.9145 77.1377C64.6698 76.8981 64.5474 76.609 64.5474 76.2705C64.5474 75.9268 64.6698 75.6351 64.9145 75.3955C65.1593 75.1559 65.451 75.0361 65.7895 75.0361C66.1333 75.0361 66.425 75.1559 66.6645 75.3955C66.9093 75.6351 67.0317 75.9268 67.0317 76.2705C67.0317 76.609 66.9093 76.8981 66.6645 77.1377C66.425 77.3773 66.1333 77.4971 65.7895 77.4971ZM71.6958 73.8174V65.2158H73.977V66.5596H74.1177C74.3 66.0752 74.602 65.7002 75.0239 65.4346C75.4458 65.1637 75.938 65.0283 76.5005 65.0283C76.8911 65.0283 77.2453 65.0934 77.563 65.2236C77.8807 65.3486 78.1515 65.5283 78.3755 65.7627C78.5994 65.9971 78.7713 66.2809 78.8911 66.6143H79.0317C79.1619 66.2965 79.3547 66.0205 79.6099 65.7861C79.8651 65.5465 80.1645 65.3617 80.5083 65.2314C80.852 65.096 81.2244 65.0283 81.6255 65.0283C82.1984 65.0283 82.6906 65.1455 83.102 65.3799C83.5187 65.6143 83.839 65.9476 84.063 66.3799C84.2922 66.807 84.4067 67.3174 84.4067 67.9111V73.8174H82.1255V68.4814C82.1255 68.1325 82.0734 67.8434 81.9692 67.6143C81.8651 67.3851 81.7062 67.2132 81.4927 67.0986C81.2843 66.9788 81.0213 66.9189 80.7036 66.9189C80.3963 66.9189 80.1281 66.9893 79.8989 67.1299C79.675 67.2705 79.5005 67.4606 79.3755 67.7002C79.2505 67.9398 79.188 68.2158 79.188 68.5283V73.8174H76.9067V68.3799C76.9067 68.0726 76.8494 67.8096 76.7349 67.5908C76.6255 67.3721 76.464 67.2054 76.2505 67.0908C76.0422 66.9762 75.7895 66.9189 75.4927 66.9189C75.1958 66.9189 74.9328 66.9945 74.7036 67.1455C74.4797 67.2913 74.3026 67.4945 74.1724 67.7549C74.0422 68.0101 73.977 68.3018 73.977 68.6299V73.8174H71.6958Z" fill="white"/>
<path d="M64.4298 35.2581H68.769L53.0175 26.8126L37.6819 35.2581H41.6124V50.0175H39.4397V51.0012H66.6035V50.0175H64.4298V35.2581ZM41.5604 34.2744L53.0247 27.9605L64.8008 34.2744H41.5604ZM42.6987 50.0175V35.2581H45.9586V50.0175H42.6987ZM47.0449 50.0175V35.2581H50.3048V50.0175H47.0449ZM51.3911 50.0175V35.2581H54.6511V50.0175H51.3911ZM55.7374 50.0175V35.2581H58.9973V50.0175H55.7374ZM60.0836 50.0175V35.2581H63.3435V50.0175H60.0836Z" fill="white"/>
</svg>
